<svg id="visual" viewBox="0 0 1920 1080" width="1920" height="1080" xmlns="http://www.w3.org/2000/svg" xmlns:xlink="http://www.w3.org/1999/xlink" version="1.1"><rect x="0" y="0" width="1920" height="1080" fill="#001220"></rect><defs><linearGradient id="grad1_0" x1="43.8%" y1="0%" x2="100%" y2="100%"><stop offset="14.444444444444446%" stop-color="#001220" stop-opacity="1"></stop><stop offset="85.55555555555554%" stop-color="#001220" stop-opacity="1"></stop></linearGradient></defs><defs><linearGradient id="grad2_0" x1="0%" y1="0%" x2="56.3%" y2="100%"><stop offset="14.444444444444446%" stop-color="#001220" stop-opacity="1"></stop><stop offset="85.55555555555554%" stop-color="#001220" stop-opacity="1"></stop></linearGradient></defs><g transform="translate(1920, 0)"><path d="M0 972C-130.3 961.6 -260.7 951.2 -372 898C-483.3 844.9 -575.5 749 -652 652C-728.4 554.9 -789.1 456.7 -839.8 347.9C-890.5 239 -931.3 119.5 -972 0L0 0Z" fill="#FBAE3C"></path></g><g transform="translate(0, 1080)"><path d="M0 -972C90.1 -875.1 180.1 -778.2 309.6 -747.4C439.1 -716.6 608 -752 687.3 -687.3C766.7 -622.7 756.5 -458 789 -326.8C821.5 -195.6 896.8 -97.8 972 0L0 0Z" fill="#FBAE3C"></path></g></svg>