<svg id="visual" viewBox="0 0 1920 1080" width="1920" height="1080" xmlns="http://www.w3.org/2000/svg" xmlns:xlink="http://www.w3.org/1999/xlink" version="1.1"><rect x="0" y="0" width="1920" height="1080" fill="#001220"></rect><defs><linearGradient id="grad1_0" x1="43.8%" y1="0%" x2="100%" y2="100%"><stop offset="14.444444444444446%" stop-color="#fbae3c" stop-opacity="1"></stop><stop offset="85.55555555555554%" stop-color="#fbae3c" stop-opacity="1"></stop></linearGradient></defs><defs><linearGradient id="grad1_1" x1="43.8%" y1="0%" x2="100%" y2="100%"><stop offset="14.444444444444446%" stop-color="#fbae3c" stop-opacity="1"></stop><stop offset="85.55555555555554%" stop-color="#96446e" stop-opacity="1"></stop></linearGradient></defs><defs><linearGradient id="grad1_2" x1="43.8%" y1="0%" x2="100%" y2="100%"><stop offset="14.444444444444446%" stop-color="#001220" stop-opacity="1"></stop><stop offset="85.55555555555554%" stop-color="#96446e" stop-opacity="1"></stop></linearGradient></defs><defs><linearGradient id="grad2_0" x1="0%" y1="0%" x2="56.3%" y2="100%"><stop offset="14.444444444444446%" stop-color="#fbae3c" stop-opacity="1"></stop><stop offset="85.55555555555554%" stop-color="#fbae3c" stop-opacity="1"></stop></linearGradient></defs><defs><linearGradient id="grad2_1" x1="0%" y1="0%" x2="56.3%" y2="100%"><stop offset="14.444444444444446%" stop-color="#96446e" stop-opacity="1"></stop><stop offset="85.55555555555554%" stop-color="#fbae3c" stop-opacity="1"></stop></linearGradient></defs><defs><linearGradient id="grad2_2" x1="0%" y1="0%" x2="56.3%" y2="100%"><stop offset="14.444444444444446%" stop-color="#96446e" stop-opacity="1"></stop><stop offset="85.55555555555554%" stop-color="#001220" stop-opacity="1"></stop></linearGradient></defs><g transform="translate(1920, 0)"><path d="M0 972C-95.3 878.6 -190.5 785.2 -310.4 749.3C-430.2 713.3 -574.5 734.8 -680.9 680.9C-787.4 627.1 -855.8 498 -898 372C-940.2 245.9 -956.1 123 -972 0L0 0Z" fill="#3d3056"></path><path d="M0 648C-63.5 585.7 -127 523.5 -206.9 499.5C-286.8 475.5 -383 489.8 -454 454C-524.9 418.1 -570.6 332 -598.7 248C-626.8 164 -637.4 82 -648 0L0 0Z" fill="#e1685e"></path><path d="M0 324C-31.8 292.9 -63.5 261.7 -103.5 249.8C-143.4 237.8 -191.5 244.9 -227 227C-262.5 209 -285.3 166 -299.3 124C-313.4 82 -318.7 41 -324 0L0 0Z" fill="#fbae3c"></path></g><g transform="translate(0, 1080)"><path d="M0 -972C101.3 -896.2 202.7 -820.3 324.9 -784.4C447.1 -748.4 590.3 -752.3 687.3 -687.3C784.3 -622.3 835.2 -488.4 874.9 -362.4C914.7 -236.4 943.3 -118.2 972 0L0 0Z" fill="#3d3056"></path><path d="M0 -648C67.6 -597.4 135.1 -546.9 216.6 -522.9C298.1 -498.9 393.5 -501.5 458.2 -458.2C522.9 -414.9 556.8 -325.6 583.3 -241.6C609.8 -157.6 628.9 -78.8 648 0L0 0Z" fill="#e1685e"></path><path d="M0 -324C33.8 -298.7 67.6 -273.4 108.3 -261.5C149 -249.5 196.8 -250.8 229.1 -229.1C261.4 -207.4 278.4 -162.8 291.6 -120.8C304.9 -78.8 314.4 -39.4 324 0L0 0Z" fill="#fbae3c"></path></g></svg>